<svg width="1240" height="842" viewBox="0 0 1240 842" fill="none" xmlns="http://www.w3.org/2000/svg">
<path d="M468.5 95.5C468.5 118.117 449.947 136.5 427 136.5C404.053 136.5 385.5 118.117 385.5 95.5C385.5 72.8832 404.053 54.5 427 54.5C449.947 54.5 468.5 72.8832 468.5 95.5Z" stroke="black" stroke-width="5"/>
<path d="M418 78C411.925 78 407 82.925 407 89C407 100 420 110 427 112.326C434 110 447 100 447 89C447 82.925 442.075 78 436 78C432.28 78 428.99 79.847 427 82.674C425.986 81.2292 424.638 80.0501 423.072 79.2365C421.505 78.4229 419.765 77.9988 418 78Z" stroke="black" stroke-width="4" stroke-linecap="round" stroke-linejoin="round"/>
<path d="M1201.66 724.085C1214.18 736.817 1230.23 764.641 1194.29 774.085" stroke="black" stroke-width="5" stroke-linecap="round"/>
<path d="M1202.29 751.085C1200.15 739.934 1191.38 718.904 1172.46 712.151C1169.35 711.042 1165.96 710.317 1162.29 710.085" stroke="black" stroke-width="5" stroke-linecap="round"/>
<path d="M1180.38 647.085C1155.5 663.641 1114.64 707.21 1150.24 749.028C1185.85 790.847 1199.78 794.513 1202.29 791.118" stroke="black" stroke-width="5" stroke-linecap="round"/>
<path d="M1208.29 680.085L1172.29 712.085" stroke="black" stroke-width="5" stroke-linecap="round"/>
<path d="M1172.29 644.085C1174.5 644.335 1177.32 645.14 1180.48 646.688C1189.18 650.939 1200.49 660.79 1208.9 680.073C1211.31 685.604 1213.49 691.912 1215.29 699.085" stroke="black" stroke-width="5" stroke-linecap="round"/>
<path d="M1176.29 634.085C1192.03 636.085 1224.46 645.285 1228.29 666.085" stroke="black" stroke-width="5" stroke-linecap="round"/>
<path d="M1182.29 623.338C1190.13 621.14 1209.31 618.613 1223.29 626.085" stroke="black" stroke-width="5" stroke-linecap="round"/>
<path d="M568.283 140L631.562 228.389" stroke="black" stroke-width="5" stroke-linecap="round"/>
<path d="M573.691 222.201L605.255 249.293" stroke="black" stroke-width="5" stroke-linecap="round"/>
<path d="M595.5 285.5L504.5 252" stroke="black" stroke-width="5" stroke-linecap="round"/>
<path d="M543.266 322.234L586.104 320.772" stroke="black" stroke-width="5" stroke-linecap="round"/>
<path d="M481 382.678L597.917 353.96" stroke="black" stroke-width="5" stroke-linecap="round"/>
<path d="M721.759 321.348C715.772 343.691 705.372 362.456 693.521 374.753C681.601 387.123 668.678 392.535 657.423 389.519C646.167 386.503 637.682 375.355 633.544 358.683C629.43 342.107 629.805 320.656 635.792 298.313C641.778 275.97 652.179 257.205 664.03 244.908C675.95 232.538 688.872 227.126 700.128 230.142C711.383 233.157 719.868 244.306 724.007 260.978C728.121 277.554 727.746 299.005 721.759 321.348Z" stroke="black" stroke-width="5"/>
<path d="M671.029 323.284C675.297 324.428 680.495 318.868 682.639 310.866C684.783 302.864 683.062 295.45 678.794 294.306C674.526 293.163 669.328 298.723 667.184 306.725C665.04 314.727 666.762 322.141 671.029 323.284Z" fill="black"/>
<path d="M851.658 371.683C857.234 363.238 859.072 349.168 859.293 343.188L872.842 352.513C877.057 361.51 871.492 367.853 868.183 369.899L851.658 371.683Z" fill="black"/>
<path d="M671.498 389.15L868.182 369.899M872.841 352.513L706.63 232.919L872.841 352.513Z" stroke="black" stroke-width="5" stroke-linecap="round"/>
<path d="M671.324 320.257L711.486 348.1M677.536 297.075L725.721 294.974L677.536 297.075Z" stroke="black" stroke-width="5" stroke-linecap="round"/>
<path d="M882.471 643.531L841.737 684.602C808.448 714.472 786.471 691.5 772.97 679.209C758.971 659.5 736.971 634.879 736.971 552.5C736.971 501 749.471 475.908 799.971 494.908" stroke="black" stroke-width="5" stroke-linecap="round"/>
<path d="M872.842 352.512C874.524 355.896 875.946 364.111 868.184 369.899" stroke="black" stroke-width="5" stroke-linecap="round"/>
<path d="M858.456 342.447C858.717 348.556 856.919 361.705 850.691 371.424" stroke="black" stroke-width="5" stroke-linecap="round"/>
<path d="M966.471 433.5C931.971 433.5 853.971 451.5 821.971 525" stroke="black" stroke-width="5" stroke-linecap="round"/>
<path d="M733.193 436.221C730.912 439.144 728.438 446.293 735.296 452.867C735.804 453.354 736.363 453.838 736.978 454.317C745.884 461.259 750.268 454.945 751.346 450.92" stroke="black" stroke-width="5" stroke-linecap="round"/>
<path d="M760.399 438.385C763.086 445.357 757.87 447.181 754.926 447.221C754.228 447.14 753.388 447.009 752.445 446.82C747.286 445.785 739.058 443.03 734.228 437.534C733.831 437.082 733.488 436.645 733.193 436.221C729.245 430.544 734.066 427.351 737.204 426.426" stroke="black" stroke-width="5" stroke-linecap="round"/>
<path d="M742.371 414.869C739.462 414.78 734.08 416.064 735.825 421.915C737.57 427.766 752.299 435.129 759.446 438.079C759.757 438.197 760.076 438.3 760.399 438.385C763.325 439.157 766.582 438.493 767.631 434.578C769.113 429.046 762.532 425.275 761.008 424.522" stroke="black" stroke-width="5" stroke-linecap="round"/>
<path d="M763.675 402.978C760.636 403.371 757.158 406.822 762.794 412.059C768.431 417.297 765.585 421.607 763.458 423.107C760.278 424.671 751.481 424.143 741.734 409.522C731.986 394.901 754.818 393.53 767.453 394.673" stroke="black" stroke-width="5" stroke-linecap="round"/>
<path d="M788.097 421.945C783.788 416.132 774.761 407.191 773.125 417.934C771.489 428.676 777.646 435.192 780.929 437.107" stroke="black" stroke-width="5" stroke-linecap="round"/>
<path d="M776.961 471.242C774.796 467.729 772.268 457.458 779.472 444.48" stroke="black" stroke-width="5" stroke-linecap="round"/>
<path d="M776.071 379.899L763.666 410.74" stroke="black" stroke-width="5" stroke-linecap="round"/>
<path d="M786.934 426.292L810.699 376.237" stroke="black" stroke-width="5" stroke-linecap="round"/>
<path d="M743.342 465.34C740.883 474.516 733.301 485.426 742.184 490.912C753.03 497.61 757.165 487.161 762.556 476.7L777.764 445.058" stroke="black" stroke-width="5" stroke-linecap="round"/>
<path d="M795.971 414.5C801.304 433.333 801.471 471.908 801.471 548.408" stroke="black" stroke-width="5" stroke-linecap="round"/>
<path d="M1127.53 613.5C1151.97 672 1118.47 723.5 1127.53 821C1066.86 839 932.626 859.7 881.026 798.5C878.692 787.833 881.026 727.5 881.026 688.5" stroke="black" stroke-width="5" stroke-linecap="round"/>
<path d="M1076.02 526L1067.99 513.674C1060.17 501.662 1044.94 496.866 1031.64 502.228L1012.5 509.944C1000.56 514.758 986.882 511.419 978.504 501.645L956.523 476" stroke="black" stroke-width="5" stroke-linecap="round"/>
<path d="M965.524 435.415C961.024 422.415 965.123 413.666 969.123 412C993.123 434 1029.52 425.833 1043.02 412.5C1047.82 416.9 1045.02 429.915 1043.02 433.915C1017.02 462.715 980.024 446.581 965.524 435.415Z" fill="black"/>
<path d="M896.582 231.02C907.582 270.52 913.082 274.02 929.082 291.52C929.082 274.225 932.053 245.196 932.053 233.108C984.442 233.108 1028.66 211.722 1044.21 201.029C1043.66 237.292 1077.65 261.003 1077.65 261.003C1077.65 261.003 1072.78 275.648 1069.99 308.425C1067.76 334.646 1074.17 329.579 1077.65 323.767C1087.68 291.409 1104.13 300.056 1111.09 308.425C1196.58 169.521 1065.11 142.681 1040.03 145.238C1021.09 129.059 994.659 116.38 976.082 114.521C909.082 107.814 878.745 166.973 896.582 231.02Z" fill="black"/>
<path d="M1076.48 348.49C1067.48 403.435 1007.07 442.945 963.481 398.435C919.889 353.926 928.612 272.454 933.269 234.435" stroke="black" stroke-width="5" stroke-linecap="round"/>
<path d="M1112.08 305.02C1117.58 318.52 1112.42 348.435 1076.48 348.435" stroke="black" stroke-width="5" stroke-linecap="round"/>
<path fill-rule="evenodd" clip-rule="evenodd" d="M55.1557 110.806C53.6122 110.368 51.9976 111.222 51.491 112.745L47.8471 123.694C47.4985 124.742 46.603 125.513 45.5157 125.702L34.147 127.684C32.5664 127.959 31.4824 129.43 31.6865 131.021L33.1543 142.467C33.2947 143.562 32.8225 144.646 31.9251 145.288L22.542 152.006C21.2375 152.94 20.8987 154.735 21.773 156.08L28.0618 165.756C28.6634 166.682 28.7081 167.863 28.1783 168.831L22.6392 178.955C21.8692 180.362 22.3428 182.127 23.7141 182.959L33.5784 188.948C34.5219 189.521 35.0746 190.566 35.0174 191.668L34.4195 203.193C34.3364 204.795 35.5285 206.179 37.1254 206.334L48.6114 207.45C49.71 207.557 50.6612 208.258 51.088 209.276L55.5496 219.919C56.1699 221.399 57.8444 222.128 59.3504 221.575L70.1832 217.597C71.2193 217.217 72.3807 217.436 73.2069 218.168L81.8444 225.821C83.0452 226.885 84.8705 226.816 85.9874 225.664L94.0214 217.38C94.7898 216.587 95.9313 216.281 96.9932 216.582L108.096 219.729C109.639 220.167 111.254 219.313 111.761 217.79L115.404 206.841C115.753 205.793 116.649 205.022 117.736 204.832L129.105 202.851C130.685 202.575 131.769 201.105 131.565 199.514L130.097 188.068C129.957 186.973 130.429 185.889 131.326 185.247L140.71 178.529C142.014 177.595 142.353 175.8 141.479 174.455L135.19 164.779C134.588 163.853 134.543 162.672 135.073 161.704L140.612 151.58C141.382 150.172 140.909 148.408 139.537 147.576L129.673 141.587C128.73 141.014 128.177 139.969 128.234 138.867L128.832 127.342C128.915 125.74 127.723 124.356 126.126 124.201L114.64 123.085C113.542 122.978 112.59 122.277 112.164 121.259L107.702 110.616C107.082 109.136 105.407 108.407 103.901 108.96L93.0683 112.938C92.0322 113.318 90.8708 113.099 90.0447 112.367L81.4072 104.714C80.2064 103.65 78.381 103.719 77.2641 104.871L69.2301 113.155C68.4617 113.948 67.3203 114.254 66.2583 113.953L55.1557 110.806ZM70.2617 193.469L60.156 175.965L64.2134 173.623L74.3191 191.126L70.2617 193.469ZM77.6402 189.209L77.672 189.19L78.0716 189.018C85.8775 186.651 91.1041 185.175 93.7898 184.58C97.357 183.789 98.6162 183.372 100.742 182.327C102.334 181.548 103.733 179.955 104.059 178.691C104.24 177.993 104.039 176.889 103.35 175.395C103.205 175.083 103.147 174.736 103.182 174.393C103.217 174.05 103.343 173.723 103.548 173.445C104.004 172.83 104.262 172.107 104.324 171.236C104.385 170.438 104.023 169.225 103.179 167.655C103.023 167.367 102.944 167.043 102.948 166.716C102.952 166.388 103.04 166.067 103.203 165.782C104.151 164.136 104.319 162.8 103.835 161.625C103.301 160.326 102.126 159.195 100.209 158.241C99.759 158.017 99.4143 157.627 99.2478 157.153C99.0814 156.679 99.1064 156.159 99.3175 155.703C99.9 154.447 99.8846 153.178 99.234 151.74C98.1982 149.449 95.8916 148.645 92.5786 150.131C89.6336 151.464 86.9562 153.322 84.6777 155.615C84.4174 155.872 84.0892 156.049 83.7315 156.126C83.3739 156.203 83.0018 156.176 82.6589 156.049C82.3161 155.921 82.0168 155.699 81.7962 155.407C81.5757 155.115 81.4431 154.766 81.414 154.402C81.1429 151.108 80.5901 148.58 79.7946 146.835C78.7359 144.522 77.3118 143.224 75.3713 142.597C73.9005 142.122 72.1373 142.384 71.667 142.812C71.0453 143.373 70.8203 144.05 71.049 145.836C71.1857 146.892 71.4325 147.714 72.1147 149.574C72.7597 151.34 73.0236 152.153 73.2511 153.287C73.9455 156.721 73.2969 161.071 71.3026 164.964C70.1708 167.171 68.7984 169.244 67.2118 171.146L77.6402 189.209ZM69.6611 197.5C70.4954 197.573 71.3063 197.339 72.0836 196.861L79.4058 192.634C87.0033 190.334 92.0941 188.895 94.63 188.334C98.4758 187.484 100.019 186.971 102.44 185.782C104.991 184.53 107.153 182.066 107.773 179.667C108.149 178.224 107.949 176.595 107.247 174.769C107.772 173.764 108.08 172.66 108.151 171.528C108.256 170.117 107.864 168.54 107.025 166.765C108.094 164.482 108.241 162.251 107.384 160.17C106.641 158.362 105.289 156.85 103.382 155.632C103.785 153.851 103.562 152.007 102.733 150.164C100.801 145.892 96.1993 144.287 91.0014 146.619C88.779 147.618 86.688 148.887 84.7756 150.397C84.4226 148.373 83.9288 146.659 83.2822 145.246C81.7817 141.958 79.5213 139.901 76.5358 138.938C73.8418 138.067 70.6476 138.538 69.0854 139.955C67.4981 141.397 66.8601 143.33 67.2439 146.311C67.4261 147.745 67.734 148.764 68.5106 150.888C69.0914 152.47 69.3123 153.158 69.4917 154.039C70.0072 156.598 69.4916 160.065 67.8859 163.203C66.6897 165.534 65.19 167.696 63.4261 169.633L58.0823 172.718C57.2101 173.195 56.5624 173.954 56.2917 174.925C56.0021 175.96 56.2263 176.998 56.8602 177.904L67.1929 195.818C67.7566 196.777 68.5965 197.407 69.6611 197.5Z" fill="black"/>
<path d="M1096.23 312.435C1097.02 315.324 1096.39 322.169 1087.48 326.435" stroke="black" stroke-width="5" stroke-linecap="round"/>
<path d="M934.481 341.435C922.751 336.545 914.481 318.435 917.662 289.435" stroke="black" stroke-width="5" stroke-linecap="round"/>
<path d="M960.799 306.258C957.468 304.92 956.166 300.353 957.892 296.057C959.618 291.761 963.718 289.364 967.049 290.702C970.38 292.04 971.681 296.607 969.955 300.903C968.229 305.199 964.13 307.597 960.799 306.258Z" fill="black"/>
<path d="M1021.96 307.983C1018.58 306.773 1017.01 302.537 1018.45 298.521C1019.88 294.506 1023.79 292.232 1027.17 293.442C1030.55 294.652 1032.12 298.888 1030.68 302.903C1029.25 306.918 1025.34 309.193 1021.96 307.983Z" fill="black"/>
<path d="M1048.48 288.435C1046.9 283.788 1040.09 275.192 1025.48 277.98" stroke="black" stroke-width="5" stroke-linecap="round"/>
<path d="M978.48 279.435C974.995 276.417 965.516 272.191 955.48 279.435" stroke="black" stroke-width="5" stroke-linecap="round"/>
<path d="M987.277 301.085C986.112 310.959 978.47 332.085 991.47 332.085" stroke="black" stroke-width="5" stroke-linecap="round"/>
<path d="M1044.47 430C1143.97 430 1268.47 534.5 1229.66 665" stroke="black" stroke-width="5" stroke-linecap="round"/>
<path d="M1118.79 574.585C1123.29 579.418 1133.29 592.785 1137.29 607.585C1141.29 622.385 1152.62 632.752 1157.79 636.085" stroke="black" stroke-width="5" stroke-linecap="round"/>
<path d="M339.221 436.242C340.372 470.011 373.521 486.539 391.96 491.212C392.812 491.427 393.004 492.57 392.276 493.064C359.196 515.524 345.825 523.201 351.221 572.742C355.621 613.142 297.054 616.575 267.221 613.242C234.721 611.242 158.721 607.042 114.721 606.242C70.7207 605.442 50.3874 555.908 45.7207 531.242C43.7207 512.908 38.4207 456.942 33.2207 379.742C26.7207 283.242 165.221 294.742 262.221 310.742C359.221 326.742 337.721 392.242 339.221 436.242Z" stroke="black" stroke-width="5" stroke-linecap="round"/>
<path d="M81.0006 91.5327C80.1672 59.6994 102.799 1.43228 175.999 3.03228C267.499 5.03228 372.499 8.03228 400.499 60.0323" stroke="black" stroke-width="5" stroke-linecap="round"/>
<path d="M77.9999 231.033C74.9999 252.533 76.7993 300.233 83.9993 309.033" stroke="black" stroke-width="5" stroke-linecap="round"/>
<path d="M346 401.533C366.167 408.033 407.3 409.133 410.5 361.533C413.412 318.215 430.624 298.113 441.108 291.958C441.956 291.46 441.849 289.88 440.955 289.472C433.566 286.098 423.409 275.838 425.5 253.533C428.5 221.533 432.5 162.033 425.5 136.033" stroke="black" stroke-width="5" stroke-linecap="round"/>
<path d="M1005.67 358.237C1001.65 360.495 991.517 362.732 983.139 353.622Z" stroke="black" stroke-width="5" stroke-linecap="round" stroke-linejoin="round"/>
<path d="M138.231 290.355C136.498 291.277 134.862 291.881 133.323 292.168C131.764 292.417 130.19 292.409 128.599 292.144C127.045 291.859 125.296 291.388 123.352 290.731C122.246 290.014 121.332 289.341 120.61 288.71C119.905 288.022 119.252 287.112 118.651 285.982C118.17 285.078 117.957 284.177 118.01 283.278C118.064 282.38 118.637 281.64 119.729 281.059C120.52 280.638 121.505 280.718 122.684 281.299C123.233 281.877 123.993 282.488 124.964 283.131C125.934 283.775 127.13 284.251 128.55 284.558C130.008 284.846 131.696 284.794 133.614 284.402C134.126 284.274 134.664 284.06 135.229 283.76C136.209 283.239 137.107 282.519 137.924 281.601C138.778 280.664 139.372 279.647 139.707 278.55C140.042 277.454 139.929 276.378 139.368 275.323C138.887 274.419 138.175 273.808 137.232 273.488C136.326 273.148 135.339 272.973 134.27 272.961C133.218 272.893 132.263 272.869 131.405 272.891C129.746 272.952 128.058 273.004 126.341 273.047C124.624 273.091 122.96 272.961 121.349 272.658C119.718 272.317 118.204 271.697 116.807 270.797C115.448 269.877 114.287 268.513 113.325 266.705C112.223 264.633 111.829 262.62 112.142 260.665C112.435 258.673 113.22 256.878 114.497 255.28C115.791 253.625 117.361 252.307 119.207 251.325C119.847 250.984 120.687 250.61 121.727 250.202C122.804 249.774 123.978 249.391 125.248 249.054C126.518 248.716 127.792 248.522 129.07 248.47C130.327 248.381 131.467 248.524 132.488 248.899C133.509 249.274 134.29 249.97 134.831 250.987C135.272 251.816 135.342 252.721 135.043 253.702C134.761 254.625 134.205 255.307 133.376 255.748C132.472 256.229 131.61 256.47 130.789 256.472C129.969 256.474 129.147 256.428 128.324 256.334C127.538 256.22 126.679 256.194 125.745 256.256C124.811 256.318 123.798 256.639 122.706 257.22L121.067 258.092C120.326 258.97 119.795 259.88 119.476 260.824C119.136 261.729 119.126 262.483 119.447 263.086C120.048 264.216 120.955 264.966 122.166 265.336C123.416 265.687 124.861 265.86 126.503 265.857C128.162 265.796 129.887 265.724 131.68 265.64C133.509 265.537 135.315 265.615 137.097 265.875C138.896 266.078 140.552 266.647 142.064 267.582C143.594 268.46 144.88 269.878 145.922 271.837C146.904 273.682 147.371 275.513 147.321 277.327C147.271 279.142 146.838 280.87 146.02 282.513C145.203 284.157 144.115 285.654 142.755 287.005C141.396 288.356 139.888 289.473 138.231 290.355ZM166.463 274.611C164.843 275.472 163.307 275.855 161.853 275.758C160.418 275.603 159.098 275.121 157.895 274.312C156.691 273.502 155.606 272.509 154.641 271.331C153.694 270.095 152.869 268.818 152.168 267.499L150.695 264.731C150.635 264.618 150.461 264.154 150.173 263.341C149.865 262.49 149.528 261.582 149.16 260.618C148.829 259.634 148.582 258.896 148.417 258.404C148.249 257.816 148.03 257.087 147.76 256.216C147.508 255.287 147.303 254.357 147.146 253.425C147.006 252.436 147.022 251.558 147.194 250.79C147.383 249.964 147.816 249.371 148.494 249.011C149.511 248.47 150.444 248.36 151.292 248.682C152.177 248.984 152.851 249.569 153.312 250.435C153.692 251.151 153.95 251.908 154.085 252.706C154.257 253.484 154.458 254.271 154.688 255.067C155.186 256.639 155.684 258.21 156.182 259.782C156.717 261.334 157.376 262.844 158.157 264.313C158.438 264.84 158.836 265.498 159.352 266.287C159.869 267.076 160.466 267.7 161.146 268.16C161.826 268.62 162.58 268.63 163.409 268.189C164.049 267.848 164.582 267.033 165.007 265.743C165.471 264.434 165.841 262.859 166.119 261.02C166.435 259.16 166.69 257.188 166.886 255.102C167.061 252.979 167.191 250.953 167.276 249.023C167.379 247.035 167.45 245.306 167.489 243.835C167.508 242.327 167.529 241.277 167.552 240.684C167.633 240.11 167.773 239.6 167.972 239.156C168.171 238.712 168.534 238.35 169.061 238.069C170.831 237.128 172.327 237.395 173.548 238.872L174.63 240.906C175.511 242.564 176.337 244.251 177.105 245.969C177.892 247.628 178.696 249.231 179.517 250.775L181.291 254.109C181.724 254.651 182.26 255.067 182.897 255.356C183.534 255.646 184.134 255.955 184.696 256.284C185.275 256.556 185.735 257.012 186.076 257.652C186.537 258.519 186.664 259.394 186.457 260.277C186.25 261.16 185.714 261.832 184.847 262.293C183.717 262.894 182.613 262.998 181.534 262.606C180.435 262.175 179.417 261.533 178.479 260.679C177.892 260.121 177.168 259.395 176.305 258.501C175.461 257.548 174.626 256.615 173.801 255.701C173.757 256.981 173.638 258.301 173.443 259.661C173.266 260.963 173.041 262.267 172.769 263.572C172.365 265.72 171.684 267.846 170.725 269.951C169.767 272.055 168.346 273.609 166.463 274.611ZM207.219 252.929C206.503 253.31 205.938 253.61 205.524 253.831C205.127 253.993 204.606 254.15 203.961 254.3C203.617 254.289 203.169 254.31 202.617 254.362C202.045 254.377 201.501 254.4 200.987 254.432C200.472 254.464 200.121 254.53 199.932 254.63C199.669 254.771 199.385 255.236 199.08 256.026C198.793 256.759 198.311 257.305 197.633 257.666C196.653 258.187 195.795 258.209 195.058 257.731C194.3 257.216 193.681 256.506 193.2 255.602C192.759 254.774 192.406 254.019 192.141 253.339C191.855 252.62 191.605 251.787 191.39 250.838C189.751 246.394 187.92 241.907 185.897 237.377C183.891 232.79 181.736 228.33 179.432 223.998C178.851 222.906 178.279 221.832 177.718 220.778C177.157 219.723 176.559 218.688 175.922 217.674C175.484 216.94 175.429 216.293 175.758 215.731C176.088 215.169 176.554 214.728 177.157 214.407L177.665 214.137C178.494 213.696 179.301 213.532 180.086 213.646C180.872 213.76 181.62 214.304 182.332 215.278L183.955 218.329C185.118 220.514 186.242 222.719 187.329 224.944C188.416 227.169 189.602 229.534 190.887 232.04L191.056 231.95C191.659 229.358 192.571 226.94 193.793 224.695C195.015 222.45 196.775 220.716 199.073 219.494C200.844 218.552 202.778 218.054 204.876 218.001C206.992 217.891 208.987 218.279 210.861 219.167C212.715 220.017 214.143 221.384 215.144 223.268C216.487 225.791 217.319 228.49 217.64 231.364C217.94 234.201 217.744 237.011 217.051 239.797C216.358 242.582 215.201 245.131 213.579 247.443C211.938 249.718 209.818 251.546 207.219 252.929ZM204.003 246.883C205.472 246.102 206.769 244.952 207.895 243.435C209.021 241.918 209.885 240.226 210.487 238.359C211.089 236.492 211.375 234.624 211.347 232.754C211.357 230.865 210.961 229.166 210.159 227.66C209.518 226.454 208.494 225.573 207.086 225.017C205.696 224.403 204.361 224.437 203.08 225.118C201.724 225.84 200.652 226.821 199.862 228.063C199.111 229.284 198.534 230.654 198.134 232.172C197.751 233.632 197.493 235.147 197.361 236.715C197.229 238.284 197.113 239.747 197.014 241.105C197.071 241.848 197.092 242.706 197.079 243.68C197.103 244.633 197.295 245.449 197.656 246.127C198.017 246.805 198.591 247.249 199.379 247.458C200.167 247.667 200.989 247.713 201.845 247.596C202.718 247.421 203.438 247.184 204.003 246.883ZM242.481 235.982C241.426 236.543 240.171 237.09 238.715 237.623C237.278 238.194 235.8 238.594 234.279 238.823C232.757 239.053 231.323 238.946 229.976 238.503C228.666 238.039 227.621 237.073 226.839 235.604C226.318 234.625 226.112 233.647 226.221 232.671C226.31 231.657 226.901 230.86 227.993 230.278C228.671 229.918 229.289 229.807 229.846 229.945C230.403 230.084 230.943 230.328 231.467 230.677C232.029 231.007 232.639 231.335 233.296 231.662C233.971 231.931 234.737 232.055 235.596 232.033C236.492 231.991 237.543 231.65 238.748 231.009C239.614 230.548 240.506 229.953 241.423 229.223C242.357 228.436 243.051 227.56 243.504 226.594C243.956 225.628 243.922 224.656 243.401 223.676C242.94 222.81 242.222 222.322 241.246 222.213C240.249 222.067 239.086 222.106 237.756 222.33C236.425 222.555 235.038 222.809 233.595 223.094C232.131 223.341 230.674 223.463 229.224 223.462C227.773 223.46 226.429 223.16 225.193 222.562C223.936 221.925 222.887 220.816 222.045 219.234C221.264 217.765 220.95 216.313 221.105 214.877C221.259 213.442 221.721 212.085 222.491 210.805C223.278 209.468 224.25 208.299 225.408 207.296C226.584 206.236 227.793 205.375 229.036 204.713C229.752 204.333 230.631 203.986 231.673 203.673C232.694 203.323 233.758 203.096 234.862 202.992C235.966 202.887 237 203.014 237.964 203.371C238.907 203.691 239.639 204.341 240.16 205.32C241.082 207.053 240.677 208.38 238.944 209.302L238.209 209.692C236.739 209.653 235.518 209.675 234.546 209.756C233.575 209.838 232.581 210.15 231.564 210.691C231.112 210.931 230.501 211.328 229.733 211.882C228.982 212.378 228.376 212.966 227.916 213.646C227.456 214.326 227.427 215.042 227.827 215.795C228.168 216.436 228.807 216.773 229.743 216.806C230.679 216.84 231.812 216.745 233.142 216.52C234.473 216.296 235.88 216.079 237.363 215.869C238.847 215.66 240.344 215.613 241.855 215.727C243.346 215.804 244.729 216.18 246.006 216.854C247.283 217.528 248.342 218.656 249.184 220.238C250.406 222.535 250.804 224.692 250.378 226.707C249.989 228.701 249.061 230.5 247.594 232.102C246.144 233.647 244.44 234.94 242.481 235.982ZM271.296 218.478C268.583 219.921 265.954 220.474 263.407 220.138C260.877 219.744 258.571 218.724 256.487 217.077C254.42 215.374 252.726 213.279 251.403 210.793C249.9 207.967 249.139 205.038 249.12 202.003C249.138 198.949 249.878 196.115 251.339 193.501C252.817 190.83 254.988 188.733 257.851 187.21C258.717 186.749 259.728 186.332 260.883 185.959C262.055 185.529 263.27 185.269 264.528 185.18C265.765 185.053 266.894 185.177 267.915 185.552C268.974 185.907 269.804 186.65 270.405 187.78C270.846 188.609 270.886 189.409 270.523 190.182C270.161 190.955 269.547 191.571 268.68 192.032C267.776 192.513 266.846 192.718 265.89 192.647C264.914 192.538 263.948 192.448 262.992 192.377C262.015 192.268 261.075 192.454 260.171 192.934C258.928 193.596 257.999 194.574 257.382 195.868C256.766 197.162 256.411 198.584 256.316 200.132C256.222 201.681 256.318 203.224 256.605 204.763C256.91 206.244 257.362 207.55 257.964 208.68C258.986 210.601 260.154 211.889 261.468 212.542C262.8 213.139 264.236 213.293 265.775 213.006C267.331 212.662 268.938 212.048 270.595 211.167C272.14 210.345 273.411 209.282 274.409 207.978C275.444 206.654 276.469 205.311 277.485 203.949L278.615 203.348C280.31 202.446 281.608 202.843 282.51 204.538C283.051 205.555 283.117 206.632 282.706 207.768C282.334 208.885 281.675 210.009 280.73 211.14C279.765 212.233 278.675 213.272 277.459 214.257C276.243 215.242 275.082 216.102 273.974 216.836C272.866 217.57 271.974 218.118 271.296 218.478ZM295.275 207.534C294.597 207.895 293.968 207.939 293.389 207.667C292.809 207.396 292.303 206.989 291.869 206.446C291.416 205.866 291.002 205.361 290.628 204.931L288.404 200.75C287.282 198.641 286.244 196.462 285.29 194.215C284.316 191.93 283.278 189.752 282.176 187.68C281.655 186.701 281.06 185.809 280.39 185.005C279.721 184.201 279.136 183.329 278.635 182.387L277.824 180.861C277.824 180.136 277.999 179.511 278.349 178.987C278.736 178.443 279.212 178.021 279.777 177.72C280.606 177.279 281.357 177.193 282.032 177.463C282.687 177.694 283.26 178.09 283.751 178.65C284.28 179.19 284.761 179.684 285.192 180.131C285.603 180.541 285.998 180.693 286.377 180.588C287.089 179.291 287.754 178.043 288.373 176.844C289.029 175.625 289.793 174.518 290.665 173.522C291.555 172.469 292.677 171.582 294.034 170.861C294.712 170.5 295.507 170.27 296.421 170.17C297.372 170.051 298.281 170.123 299.146 170.388C299.992 170.615 300.625 171.123 301.046 171.914C301.567 172.894 301.552 173.82 301.002 174.693C300.489 175.546 299.893 176.152 299.215 176.513C298.763 176.754 298.28 176.89 297.766 176.922C297.251 176.954 296.768 177.09 296.316 177.331C294.997 178.032 293.935 179.032 293.128 180.332C292.338 181.573 291.751 182.876 291.365 184.241C290.98 185.606 290.734 186.824 290.627 187.896C290.657 188.315 290.845 188.94 291.19 189.771C291.536 190.603 291.96 191.537 292.463 192.574C292.947 193.573 293.42 194.554 293.883 195.515C294.384 196.457 294.796 197.277 295.119 197.975C295.743 199.238 296.252 200.514 296.648 201.802C297.061 203.032 297.204 204.164 297.077 205.198C296.93 206.194 296.33 206.973 295.275 207.534ZM302.804 158.148C301.674 158.749 300.504 158.912 299.295 158.638C298.085 158.363 297.11 157.528 296.368 156.135C295.627 154.741 295.596 153.501 296.274 152.415C296.953 151.329 297.801 150.516 298.818 149.974C299.986 149.353 301.156 149.19 302.327 149.485C303.537 149.76 304.522 150.613 305.284 152.044C306.005 153.4 306.026 154.621 305.348 155.707C304.707 156.773 303.859 157.587 302.804 158.148ZM318.609 193.308C317.893 193.689 317.147 193.603 316.369 193.05C315.592 192.497 314.909 191.894 314.319 191.241L310.442 183.952C310.342 183.764 310.119 183.254 309.773 182.423C309.445 181.534 309.047 180.513 308.579 179.361C308.129 178.151 307.69 177.007 307.262 175.93C306.851 174.795 306.523 173.906 306.278 173.263C305.99 172.45 305.681 171.551 305.351 170.567C305.058 169.563 304.958 168.601 305.049 167.683C305.14 166.764 305.6 166.085 306.429 165.644C307.333 165.163 308.094 165.048 308.711 165.3C309.346 165.494 309.871 165.891 310.287 166.491C310.703 167.091 311.091 167.73 311.452 168.408L312.504 170.386C312.544 170.461 312.615 170.641 312.718 170.925C312.801 171.171 312.884 171.464 312.969 171.806C313.407 173.264 313.721 174.354 313.911 175.075C314.119 175.737 314.305 176.315 314.47 176.807C314.653 177.241 314.945 177.835 315.345 178.589C315.586 179.041 315.886 179.606 316.247 180.284C316.645 180.942 317.135 181.817 317.716 182.909C317.977 183.399 318.256 183.878 318.554 184.348C318.833 184.78 319.112 185.26 319.392 185.787C319.693 186.352 319.957 186.985 320.185 187.685C320.535 188.707 320.657 189.754 320.55 190.826C320.424 191.859 319.777 192.687 318.609 193.308ZM341.853 181.305C341.137 181.686 340.572 181.987 340.158 182.207C339.761 182.37 339.24 182.526 338.595 182.676C338.251 182.666 337.803 182.686 337.251 182.739C336.679 182.753 336.135 182.776 335.621 182.808C335.106 182.84 334.755 182.907 334.566 183.007C334.303 183.147 334.018 183.612 333.714 184.403C333.427 185.135 332.945 185.682 332.267 186.043C331.287 186.564 330.429 186.585 329.691 186.108C328.934 185.592 328.315 184.883 327.834 183.979C327.393 183.15 327.04 182.395 326.775 181.715C326.489 180.997 326.239 180.163 326.024 179.214C324.385 174.77 322.554 170.283 320.531 165.753C318.525 161.166 316.37 156.706 314.066 152.374C313.485 151.282 312.913 150.209 312.352 149.154C311.791 148.099 311.192 147.064 310.556 146.05C310.118 145.317 310.063 144.669 310.392 144.107C310.722 143.545 311.188 143.104 311.791 142.783L312.299 142.513C313.128 142.072 313.935 141.908 314.72 142.022C315.506 142.136 316.254 142.68 316.966 143.655L318.589 146.706C319.751 148.891 320.876 151.095 321.963 153.32C323.05 155.545 324.236 157.91 325.521 160.417L325.69 160.326C326.293 157.734 327.205 155.316 328.427 153.071C329.649 150.826 331.409 149.092 333.707 147.87C335.477 146.928 337.412 146.431 339.51 146.378C341.626 146.267 343.621 146.655 345.495 147.543C347.349 148.394 348.776 149.76 349.778 151.644C351.121 154.168 351.953 156.867 352.273 159.741C352.574 162.577 352.378 165.388 351.685 168.173C350.992 170.958 349.835 173.507 348.213 175.819C346.572 178.094 344.452 179.923 341.853 181.305ZM338.636 175.26C340.106 174.478 341.403 173.329 342.529 171.811C343.655 170.294 344.519 168.602 345.121 166.735C345.723 164.869 346.009 163.001 345.981 161.131C345.991 159.241 345.595 157.543 344.793 156.036C344.152 154.83 343.128 153.95 341.72 153.394C340.33 152.78 338.995 152.813 337.714 153.495C336.358 154.216 335.286 155.198 334.496 156.439C333.745 157.661 333.168 159.03 332.768 160.548C332.385 162.009 332.127 163.523 331.995 165.092C331.863 166.66 331.747 168.123 331.648 169.481C331.705 170.224 331.726 171.082 331.713 172.056C331.737 173.01 331.929 173.826 332.29 174.504C332.651 175.182 333.225 175.625 334.013 175.834C334.801 176.044 335.623 176.09 336.479 175.973C337.352 175.798 338.071 175.56 338.636 175.26ZM380.957 162.314C378.245 163.757 375.52 164.676 372.781 165.069C370.06 165.405 367.512 165.021 365.136 163.917C362.741 162.775 360.751 160.716 359.168 157.74C357.966 155.48 357.151 153.086 356.725 150.558C356.336 148.01 356.378 145.499 356.849 143.025C357.301 140.513 358.236 138.228 359.654 136.169C361.051 134.072 362.974 132.372 365.423 131.07C367.08 130.188 368.805 129.706 370.597 129.622C372.407 129.481 374.086 129.82 375.633 130.64C377.199 131.402 378.462 132.687 379.424 134.495C380.346 136.228 380.87 138.076 380.996 140.039C381.122 142.002 380.894 143.935 380.312 145.839C379.73 147.744 378.839 149.475 377.637 151.032C376.454 152.532 375.014 153.732 373.319 154.634C373.055 154.774 372.442 155.028 371.477 155.396C370.493 155.727 369.697 155.957 369.09 156.086C368.673 156.212 368.292 156.221 367.945 156.115C367.85 156.118 367.688 156.131 367.46 156.156C367.211 156.144 367.049 156.157 366.974 156.197C367.819 157.149 368.856 157.782 370.085 158.094C371.333 158.349 372.592 158.355 373.865 158.113C375.176 157.851 376.339 157.449 377.356 156.908C378.072 156.528 378.768 156.109 379.443 155.653C380.137 155.139 380.897 154.662 381.726 154.221C382.555 153.78 383.391 153.626 384.234 153.757C385.077 153.888 385.769 154.463 386.31 155.48C386.751 156.308 386.828 157.089 386.541 157.821C386.292 158.534 385.812 159.176 385.101 159.748C384.428 160.299 383.696 160.785 382.905 161.206C382.171 161.644 381.522 162.014 380.957 162.314ZM369.832 148.08C370.962 147.479 371.963 146.68 372.835 145.685C373.725 144.632 374.297 143.481 374.552 142.234C374.844 140.967 374.65 139.693 373.969 138.413C373.387 137.32 372.588 136.634 371.569 136.354C370.588 136.055 369.551 136.196 368.459 136.777C367.479 137.298 366.584 138.112 365.772 139.221C364.96 140.329 364.285 141.558 363.746 142.908C363.246 144.238 362.954 145.553 362.873 146.853C362.771 148.115 362.961 149.198 363.442 150.102L363.562 150.328C364.621 149.958 365.701 149.625 366.8 149.33C367.88 148.998 368.891 148.581 369.832 148.08Z" fill="black"/>
<path d="M86.9584 409.044C86.9584 402.548 92.2248 397.281 98.7211 397.281H297.887C304.383 397.281 309.65 402.548 309.65 409.044V539.564C309.65 546.061 304.383 551.327 297.887 551.327H98.7212C92.2248 551.327 86.9584 546.061 86.9584 539.564V409.044Z" fill="black"/>
<path d="M76.2712 398.357C76.2712 391.86 81.5376 386.594 88.0339 386.594H287.2C293.696 386.594 298.963 391.86 298.963 398.357V528.877C298.963 535.373 293.696 540.639 287.2 540.639H88.034C81.5376 540.639 76.2712 535.373 76.2712 528.877V398.357Z" fill="white"/>
<path fill-rule="evenodd" clip-rule="evenodd" d="M88.0339 382.673H287.2C295.862 382.673 302.883 389.695 302.883 398.357V528.877C302.883 537.538 295.862 544.56 287.2 544.56H88.034C79.3722 544.56 72.3503 537.538 72.3503 528.877V398.357C72.3503 389.695 79.3721 382.673 88.0339 382.673ZM88.0339 386.594C81.5376 386.594 76.2712 391.86 76.2712 398.357V528.877C76.2712 535.373 81.5376 540.639 88.034 540.639H287.2C293.696 540.639 298.963 535.373 298.963 528.877V398.357C298.963 391.86 293.696 386.594 287.2 386.594H88.0339Z" fill="black"/>
<path d="M90.0712 423.112C90.0712 418.781 93.5821 415.27 97.913 415.27H189.101C193.432 415.27 196.943 418.781 196.943 423.112V472.599C196.943 476.93 193.432 480.441 189.101 480.441H97.913C93.5821 480.441 90.0712 476.93 90.0712 472.599V423.112Z" fill="black"/>
<path fill-rule="evenodd" clip-rule="evenodd" d="M88.5481 490.14C88.5384 487.975 90.2859 486.212 92.4513 486.202L193.311 485.748C195.477 485.738 197.24 487.486 197.25 489.651C197.26 491.816 195.512 493.58 193.347 493.59L92.4866 494.044C90.3212 494.053 88.5579 492.306 88.5481 490.14Z" fill="black"/>
<path fill-rule="evenodd" clip-rule="evenodd" d="M89.1726 501.416C89.1726 500.334 90.0503 499.456 91.1331 499.456H168.615C169.698 499.456 170.575 500.334 170.575 501.416C170.575 502.499 169.698 503.377 168.615 503.377H91.1331C90.0503 503.377 89.1726 502.499 89.1726 501.416Z" fill="black"/>
<path fill-rule="evenodd" clip-rule="evenodd" d="M89.1726 520.91C89.1726 519.827 90.0503 518.95 91.1331 518.95H168.615C169.698 518.95 170.575 519.827 170.575 520.91C170.575 521.993 169.698 522.871 168.615 522.871H91.1331C90.0503 522.871 89.1726 521.993 89.1726 520.91Z" fill="black"/>
<path fill-rule="evenodd" clip-rule="evenodd" d="M89.1726 508.72C89.1726 507.637 90.0503 506.76 91.1331 506.76H130.876C131.959 506.76 132.836 507.637 132.836 508.72C132.836 509.803 131.959 510.681 130.876 510.681H91.1331C90.0503 510.681 89.1726 509.803 89.1726 508.72Z" fill="black"/>
<path fill-rule="evenodd" clip-rule="evenodd" d="M89.1726 526.922C89.1726 525.839 90.0503 524.961 91.1331 524.961H120.189C121.271 524.961 122.149 525.839 122.149 526.922C122.149 528.005 121.271 528.882 120.189 528.882H91.1331C90.0503 528.882 89.1726 528.005 89.1726 526.922Z" fill="black"/>
<path fill-rule="evenodd" clip-rule="evenodd" d="M255.825 418.943C255.825 417.86 256.702 416.982 257.785 416.982H290.014C291.096 416.982 291.974 417.86 291.974 418.943C291.974 420.026 291.096 420.903 290.014 420.903H257.785C256.702 420.903 255.825 420.026 255.825 418.943Z" fill="black"/>
<path fill-rule="evenodd" clip-rule="evenodd" d="M255.826 426.94C255.826 425.857 256.704 424.979 257.786 424.979H275.379C276.462 424.979 277.34 425.857 277.34 426.94C277.34 428.023 276.462 428.9 275.379 428.9H257.786C256.704 428.9 255.826 428.023 255.826 426.94Z" fill="black"/>
<path fill-rule="evenodd" clip-rule="evenodd" d="M255.825 498.369C255.825 497.286 256.702 496.408 257.785 496.408H290.014C291.096 496.408 291.974 497.286 291.974 498.369C291.974 499.452 291.096 500.329 290.014 500.329H257.785C256.702 500.329 255.825 499.452 255.825 498.369Z" fill="black"/>
<path fill-rule="evenodd" clip-rule="evenodd" d="M255.826 506.366C255.826 505.283 256.704 504.406 257.786 504.406H275.379C276.462 504.406 277.34 505.283 277.34 506.366C277.34 507.449 276.462 508.326 275.379 508.326H257.786C256.704 508.326 255.826 507.449 255.826 506.366Z" fill="black"/>
<path fill-rule="evenodd" clip-rule="evenodd" d="M255.825 455.62C255.825 454.537 256.702 453.659 257.785 453.659H290.014C291.096 453.659 291.974 454.537 291.974 455.62C291.974 456.702 291.096 457.58 290.014 457.58H257.785C256.702 457.58 255.825 456.702 255.825 455.62Z" fill="black"/>
<path fill-rule="evenodd" clip-rule="evenodd" d="M255.826 463.617C255.826 462.534 256.704 461.656 257.786 461.656H275.379C276.462 461.656 277.34 462.534 277.34 463.617C277.34 464.699 276.462 465.577 275.379 465.577H257.786C256.704 465.577 255.826 464.699 255.826 463.617Z" fill="black"/>
<path fill-rule="evenodd" clip-rule="evenodd" d="M213.221 413.019H245.015C249.346 413.019 252.857 416.53 252.857 420.861V441.445C252.857 445.776 249.346 449.287 245.015 449.287H213.221C208.89 449.287 205.379 445.776 205.379 441.445V420.861C205.379 416.53 208.89 413.019 213.221 413.019ZM213.221 416.94C211.055 416.94 209.3 418.695 209.3 420.861V441.445C209.3 443.61 211.055 445.366 213.221 445.366H245.015C247.18 445.366 248.936 443.61 248.936 441.445V420.861C248.936 418.695 247.18 416.94 245.015 416.94H213.221Z" fill="black"/>
<path d="M153.082 444.776L143.695 438.071C141.1 436.217 137.495 438.072 137.495 441.262V454.537C137.495 457.71 141.066 459.569 143.665 457.75L153.051 451.179C155.268 449.627 155.284 446.349 153.082 444.776Z" fill="white"/>
<path fill-rule="evenodd" clip-rule="evenodd" d="M92.2652 395.318H283.479C286.856 395.318 289.594 398.056 289.594 401.433C289.594 404.81 286.856 407.548 283.479 407.548H92.2652C88.888 407.548 86.1503 404.81 86.1503 401.433C86.1503 398.056 88.888 395.318 92.2652 395.318ZM92.2652 399.239C91.0535 399.239 90.0712 400.221 90.0712 401.433C90.0712 402.645 91.0535 403.627 92.2652 403.627H283.479C284.69 403.627 285.673 402.645 285.673 401.433C285.673 400.221 284.69 399.239 283.479 399.239H92.2652Z" fill="black"/>
<path fill-rule="evenodd" clip-rule="evenodd" d="M213.221 451.205H245.015C249.346 451.205 252.857 454.716 252.857 459.047V479.631C252.857 483.962 249.346 487.473 245.015 487.473H213.221C208.89 487.473 205.379 483.962 205.379 479.631V459.047C205.379 454.716 208.89 451.205 213.221 451.205ZM213.221 455.126C211.055 455.126 209.3 456.882 209.3 459.047V479.631C209.3 481.797 211.055 483.552 213.221 483.552H245.015C247.18 483.552 248.936 481.797 248.936 479.631V459.047C248.936 456.882 247.18 455.126 245.015 455.126H213.221Z" fill="black"/>
<path fill-rule="evenodd" clip-rule="evenodd" d="M213.221 491.845H245.015C249.346 491.845 252.857 495.356 252.857 499.687V520.271C252.857 524.602 249.346 528.113 245.015 528.113H213.221C208.89 528.113 205.379 524.602 205.379 520.271V499.687C205.379 495.356 208.89 491.845 213.221 491.845ZM213.221 495.766C211.055 495.766 209.3 497.521 209.3 499.687V520.271C209.3 522.436 211.055 524.192 213.221 524.192H245.015C247.18 524.192 248.936 522.436 248.936 520.271V499.687C248.936 497.521 247.18 495.766 245.015 495.766H213.221Z" fill="black"/>
<path fill-rule="evenodd" clip-rule="evenodd" d="M227.433 432.721C227.433 433.514 228.326 433.979 228.976 433.524L231.717 431.606C232.271 431.218 232.275 430.398 231.724 430.005L228.983 428.047C228.335 427.584 227.433 428.048 227.433 428.845V432.721ZM231.263 424.857L234.003 426.815C236.756 428.781 236.736 432.878 233.965 434.818L231.224 436.736C227.976 439.01 223.513 436.686 223.513 432.721V428.845C223.513 424.858 228.019 422.539 231.263 424.857Z" fill="black"/>
<path fill-rule="evenodd" clip-rule="evenodd" d="M227.433 472.422C227.433 473.215 228.326 473.68 228.976 473.225L231.717 471.306C232.271 470.918 232.275 470.099 231.724 469.705L228.983 467.748C228.335 467.284 227.433 467.748 227.433 468.545V472.422ZM231.263 464.557L234.003 466.515C236.756 468.481 236.736 472.578 233.965 474.518L231.224 476.437C227.976 478.711 223.513 476.387 223.513 472.422V468.545C223.513 464.559 228.019 462.24 231.263 464.557Z" fill="black"/>
<path fill-rule="evenodd" clip-rule="evenodd" d="M227.433 512.541C227.433 513.334 228.326 513.799 228.976 513.344L231.717 511.425C232.271 511.037 232.275 510.218 231.724 509.825L228.983 507.867C228.335 507.403 227.433 507.867 227.433 508.664V512.541ZM231.263 504.676L234.003 506.634C236.756 508.6 236.736 512.698 233.965 514.637L231.224 516.556C227.976 518.83 223.513 516.506 223.513 512.541V508.664C223.513 504.678 228.019 502.359 231.263 504.676Z" fill="black"/>
</svg>
